<svg width="19" height="19" viewBox="0 0 19 19" fill="none" xmlns="http://www.w3.org/2000/svg">
<path d="M9.52726 0.348633C4.46726 0.348633 0.360596 4.4553 0.360596 9.5153C0.360596 14.5753 4.46726 18.682 9.52726 18.682C14.5873 18.682 18.6939 14.5753 18.6939 9.5153C18.6939 4.4553 14.5873 0.348633 9.52726 0.348633ZM16.3656 6.8753L13.8173 7.92947C13.3498 6.6828 12.3689 5.6928 11.1131 5.23447L12.1673 2.68613C14.0923 3.41947 15.6231 4.9503 16.3656 6.8753ZM9.52726 12.2653C8.0056 12.2653 6.77726 11.037 6.77726 9.5153C6.77726 7.99363 8.0056 6.7653 9.52726 6.7653C11.0489 6.7653 12.2773 7.99363 12.2773 9.5153C12.2773 11.037 11.0489 12.2653 9.52726 12.2653ZM6.89643 2.67697L7.96893 5.2253C6.70393 5.68363 5.70476 6.6828 5.23726 7.9478L2.68893 6.88447C3.43143 4.9503 4.96226 3.41947 6.89643 2.67697ZM2.68893 12.1461L5.23726 11.092C5.70476 12.357 6.69476 13.347 7.95976 13.8053L6.88726 16.3536C4.96226 15.6111 3.43143 14.0803 2.68893 12.1461ZM12.1673 16.3536L11.1131 13.8053C12.3689 13.3378 13.3589 12.3478 13.8173 11.0828L16.3656 12.1553C15.6231 14.0803 14.0923 15.6111 12.1673 16.3536Z" fill="#E1E1F4"/>
</svg>
